# 3ds Max Wavefront OBJ Exporter v0.97b - (c)2007 guruware
# File Created: 20.05.2018 13:43:14

#
# object Tejadillo
#

v  5021.9521 3858.4297 -5473.7920
v  4991.9521 3858.4297 -5473.7920
v  4991.9521 3858.4297 -5488.7920
v  5006.9521 3858.4297 -5488.7920
v  5021.9521 3858.4297 -5803.7920
v  5006.9521 3858.4297 -5788.7920
v  4991.9521 3858.4297 -5788.7920
v  4991.9521 3858.4297 -5803.7920
v  4991.9531 3888.4297 -5518.7920
v  5021.9531 3858.4297 -5473.7920
v  5021.9531 3858.4297 -5803.7920
v  4991.9531 3888.4297 -5758.7920
v  4991.9531 3888.4297 -5638.7920
v  4961.9521 3858.4297 -5803.7920
v  4976.9521 3858.4297 -5788.7920
v  4961.9521 3858.4297 -5473.7920
v  4976.9521 3858.4297 -5488.7920
v  4991.9521 3888.4297 -5518.7920
v  4991.9521 3888.4297 -5638.7920
v  4991.9521 3888.4297 -5758.7920
v  4991.9531 3858.4297 -5803.7920
v  4961.9531 3858.4297 -5803.7920
v  4961.9531 3858.4297 -5473.7920
v  4991.9531 3858.4297 -5473.7920
# 24 vertices

vn 0.0000 -1.0000 -0.0000
vn 0.7071 0.7071 0.0000
vn 0.0000 0.0000 -0.0000
vn -0.7071 0.7071 0.0000
vn 0.0000 0.8321 -0.5547
vn 0.0000 0.8321 0.5547
# 6 vertex normals

vt -8189.5903 10390.1982 0.0000
vt -8169.9053 10390.1982 0.0000
vt -8169.9053 10400.0410 0.0000
vt -8179.7476 10400.0410 0.0000
vt -8189.5903 10606.7344 0.0000
vt -8179.7476 10596.8916 0.0000
vt -8169.9053 10596.8916 0.0000
vt -8169.9053 10606.7344 0.0000
vt 10419.7266 -3972.8391 0.0000
vt 10390.1982 -4000.6780 0.0000
vt 10606.7344 -4000.6780 0.0000
vt 10577.2061 -3972.8391 0.0000
vt 10498.4668 -3972.8391 0.0000
vt -8150.2202 10606.7344 0.0000
vt -8160.0625 10596.8916 0.0000
vt -8150.2202 10390.1982 0.0000
vt -8160.0625 10400.0410 0.0000
vt -10390.1982 7553.3130 0.0000
vt -10419.7266 7581.1514 0.0000
vt -10498.4668 7581.1514 0.0000
vt -10577.2061 7581.1514 0.0000
vt -10606.7344 7553.3130 0.0000
vt -8169.9053 -7385.4712 0.0000
vt -8189.5903 -7420.9590 0.0000
vt -8169.9053 -7420.9590 0.0000
vt -8150.2202 -7420.9590 0.0000
vt 8169.9053 10085.0332 0.0000
vt 8150.2202 10049.5449 0.0000
vt 8169.9053 10049.5449 0.0000
vt 8189.5903 10049.5449 0.0000
# 30 texture coords

o Tejadillo
g Tejadillo
s off
f 1/1/1 2/2/1 3/3/1 
f 1/1/1 3/3/1 4/4/1 
f 5/5/1 1/1/1 4/4/1 
f 5/5/1 4/4/1 6/6/1 
f 5/5/1 6/6/1 7/7/1 
f 5/5/1 7/7/1 8/8/1 
f 9/9/2 10/10/2 11/11/2 
f 9/9/2 11/11/2 12/12/2 
f 9/9/3 12/12/3 13/13/3 
f 14/14/1 8/8/1 7/7/1 
f 14/14/1 7/7/1 15/15/1 
f 16/16/1 14/14/1 15/15/1 
f 16/16/1 15/15/1 17/17/1 
f 16/16/1 17/17/1 3/3/1 
f 16/16/1 3/3/1 2/2/1 
f 16/18/4 18/19/4 19/20/4 
f 16/18/4 19/20/4 20/21/4 
f 16/18/4 20/21/4 14/22/4 
f 12/23/5 11/24/5 21/25/5 
f 21/25/5 22/26/5 12/23/5 
f 9/27/6 23/28/6 24/29/6 
f 24/29/6 10/30/6 9/27/6 
# 22 faces

